<?xml version="1.0" standalone="no"?><!DOCTYPE svg PUBLIC "-//W3C//DTD SVG 1.1//EN" "http://www.w3.org/Graphics/SVG/1.1/DTD/svg11.dtd"><svg t="1533266526975" class="icon" style="" viewBox="0 0 1037 1024" version="1.1" xmlns="http://www.w3.org/2000/svg" p-id="1167" xmlns:xlink="http://www.w3.org/1999/xlink" width="202.5390625" height="200"><defs><style type="text/css"></style></defs><path d="M576 492.8c25.6-57.6 12.8-121.6-32-160C499.2 288 435.2 281.6 377.6 300.8L448 371.2C460.8 384 460.8 409.6 448 422.4L422.4 454.4C409.6 467.2 384 467.2 371.2 454.4L300.8 384C281.6 435.2 288 499.2 332.8 544 377.6 588.8 441.6 595.2 492.8 576l147.2 147.2c12.8 12.8 38.4 12.8 51.2 0l25.6-25.6c12.8-12.8 12.8-38.4 0-51.2L576 492.8 576 492.8 576 492.8z" p-id="1168"></path><path d="M524.8 64c249.6 0 448 198.4 448 448s-198.4 448-448 448-448-198.4-448-448S275.2 64 524.8 64M524.8 0c-281.6 0-512 230.4-512 512s230.4 512 512 512 512-230.4 512-512S806.4 0 524.8 0L524.8 0z" p-id="1169"></path></svg>